<svg width="172" height="273" viewBox="0 0 172 273" fill="none" xmlns="http://www.w3.org/2000/svg">
<path d="M97.6692 270.775L169.106 194.654C171.495 192.122 170.503 187.885 167.258 186.688L84.9142 157.031C83.2466 156.433 81.3536 156.847 80.0466 158.09L6.35634 229.33C3.83239 231.771 4.64366 236.054 7.84367 237.389L92.4861 271.927C94.2889 272.664 96.3621 272.249 97.6692 270.775Z" fill="#18003F"/>
<path d="M107.315 224.633L170.008 157.814V140.131C170.008 140.131 168.295 136.815 161.94 136.815L164.059 121.481C164.059 121.481 170.999 110.014 170.999 95.7845C170.999 81.5549 165.456 79.0682 165.456 79.0682L79.1007 54.5234C76.3514 53.7405 73.3768 54.5234 71.3486 56.5956L8.34003 121.02C1.35411 128.158 -1.25998 138.657 1.57946 148.328L8.20482 170.893C8.74567 172.781 10.4583 174.07 12.3964 174.07V188.99C12.3964 191.201 13.7034 193.181 15.7316 194.01L96.6331 227.028C100.329 228.501 104.566 227.58 107.315 224.633Z" fill="#3D6BFF"/>
<path d="M100.283 228.179C99.0209 228.179 97.7139 227.949 96.4519 227.442L15.5504 194.424C13.3419 193.549 11.9447 191.385 11.9447 188.99V174.485C10.0067 174.3 8.33909 172.965 7.79825 170.985L1.17289 148.42C-1.75669 138.611 0.902464 127.928 8.0236 120.652L71.0321 56.2735C73.1955 54.0631 76.3054 53.2342 79.235 54.0631L165.635 78.6079H165.68C165.906 78.7 171.494 81.3709 171.494 95.7386C171.494 109.277 165.139 120.514 164.508 121.573L162.48 136.309C168.61 136.493 170.368 139.763 170.413 139.901L170.458 139.993V157.953L170.322 158.091L107.629 224.956L107.314 224.633L107.629 224.956C105.646 227.074 102.987 228.179 100.283 228.179ZM76.9814 54.7078C74.9983 54.7078 73.1054 55.4907 71.6631 56.9643L8.65459 121.343C1.7588 128.342 -0.765144 138.657 2.02923 148.19L8.65459 170.754C9.15036 172.458 10.6377 173.61 12.3954 173.61H12.8461V188.99C12.8461 191.017 14.063 192.813 15.9109 193.595L96.8125 226.567C100.373 227.995 104.339 227.12 106.998 224.311L169.556 157.63V140.269C169.241 139.763 167.303 137.276 161.939 137.276H161.398L163.607 121.296L163.652 121.204C163.742 121.112 170.548 109.646 170.548 95.7386C170.548 82.5682 165.635 79.6671 165.275 79.4829L78.9645 54.9381C78.2885 54.7999 77.6124 54.7078 76.9814 54.7078Z" fill="#1A0D78"/>
<path d="M12.3955 176.28L100.779 211.186L161.939 136.815" fill="#3D6BFF"/>
<path d="M100.914 211.739L100.644 211.601L12.2153 176.695L12.5308 175.82L100.644 210.634L161.624 136.539L162.3 137.138L100.914 211.739Z" fill="#1A0D78"/>
<path d="M102.311 229.561L96.5872 176.373C95.7759 169.004 97.8492 161.729 102.356 155.926L162.886 78.1472L163.607 78.6998L103.077 156.525C98.7055 162.143 96.7224 169.143 97.4886 176.28L103.213 229.469L102.311 229.561Z" fill="#1A0D78"/>
<path d="M90.5922 136.309L101.544 123.415C102.175 122.678 101.86 121.481 100.913 121.158L43.0429 102.646C42.5922 102.508 42.0513 102.6 41.6908 102.968L28.9809 115.08C28.2147 115.816 28.4851 117.106 29.4767 117.428L89.1049 136.769C89.6908 136.908 90.2767 136.723 90.5922 136.309Z" fill="#3D6BFF"/>
<path d="M89.6013 137.276C89.421 137.276 89.2408 137.23 89.0605 137.184L29.4322 117.843C28.8013 117.659 28.3505 117.152 28.2153 116.507C28.0801 115.863 28.2604 115.218 28.7562 114.757L41.4661 102.646C41.9618 102.186 42.6379 102.048 43.2238 102.232L101.094 120.744C101.68 120.928 102.131 121.389 102.311 121.987C102.491 122.586 102.356 123.231 101.951 123.691L90.9985 136.585C90.5929 137.046 90.0971 137.276 89.6013 137.276ZM42.6379 103.061C42.4125 103.061 42.1872 103.153 42.0069 103.291L29.297 115.402C29.0717 115.632 28.9365 115.955 29.0266 116.277C29.1167 116.599 29.3421 116.876 29.6576 116.968L89.2858 136.309C89.6464 136.401 90.0069 136.309 90.2323 136.033L101.184 123.139C101.41 122.908 101.455 122.586 101.365 122.264C101.275 121.941 101.049 121.711 100.779 121.619L42.9083 103.107C42.8182 103.061 42.728 103.061 42.6379 103.061Z" fill="#1A0D78"/>
<path d="M37.8607 113.007C37.8607 113.007 15.4156 70.0885 66.4805 56.5037L119.123 73.266C68.0579 86.8969 90.503 129.77 90.503 129.77L37.8607 113.007Z" fill="#3D6BFF"/>
<path d="M91.4035 130.552L37.5443 113.376L37.4542 113.191C37.364 113.007 28.1246 95.0477 35.1105 78.7459C39.7077 67.9701 50.2542 60.3258 66.3443 56.0431L66.4795 55.9971L120.744 73.312L119.212 73.7264C103.392 77.963 93.0711 85.4232 88.5641 95.9226C81.7584 111.81 90.7725 129.401 90.8627 129.585L91.4035 130.552ZM38.1753 112.593L89.6458 128.987C87.8429 125.026 81.7134 109.646 87.7528 95.5082C92.2148 85.0548 102.22 77.5486 117.499 73.2199L66.4795 56.9641C50.7049 61.2007 40.4739 68.6609 35.9668 79.1143C29.4767 94.1727 37.2739 110.797 38.1753 112.593Z" fill="#1A0D78"/>
<path d="M144.677 17.545C144.677 17.545 167.122 60.4639 116.057 74.0487L63.4149 57.2864C114.48 43.7016 92.0347 0.782715 92.0347 0.782715L144.677 17.545Z" fill="#3D6BFF"/>
<path d="M116.012 74.5554L61.7476 57.2405L63.28 56.8261C79.0997 52.5895 89.4208 45.1293 93.9279 34.6298C100.734 18.7425 91.7194 1.15126 91.6293 0.967056L91.1335 0L144.993 17.1768L145.083 17.361C145.173 17.5452 154.412 35.5048 147.427 51.8066C142.829 62.5824 132.283 70.2267 116.193 74.5094L116.012 74.5554ZM65.0377 57.3326L116.058 73.5884C131.832 69.3518 142.063 61.8916 146.57 51.4382C153.015 36.3797 145.263 19.7556 144.362 17.9596L92.8913 1.51966C94.6941 5.47999 100.824 20.8608 94.7842 34.9982C90.2772 45.4517 80.2715 52.9579 65.0377 57.3326Z" fill="#1A0D78"/>
<path d="M0.73303 137.026L0.465942 137.905L97.2352 168.579L97.5023 167.699L0.73303 137.026Z" fill="#1A0D78"/>
</svg>
